<svg width="10" height="13" viewBox="0 0 10 13" fill="none" xmlns="http://www.w3.org/2000/svg">
<g clip-path="url(#clip0_1_26)">
<path d="M4.51 8.99072C4.33561 8.99072 4.18528 8.93059 4.059 8.81032L0.18942 4.93172C0.06314 4.80544 0 4.65511 0 4.48072C0 4.30634 0.0616367 4.15751 0.18491 4.03423C0.308183 3.91096 0.457013 3.84932 0.6314 3.84932C0.805787 3.84932 0.95612 3.90946 1.0824 4.02972L4.51 7.46634L7.9376 4.03874C8.06388 3.91246 8.21421 3.84932 8.3886 3.84932C8.56299 3.84932 8.71182 3.91096 8.83509 4.03423C8.95836 4.15751 9.02 4.30634 9.02 4.48072C9.02 4.65511 8.95686 4.80544 8.83058 4.93172L4.961 8.81032C4.83472 8.93059 4.68439 8.99072 4.51 8.99072Z" fill="#3E464C"/>
</g>
<defs>
<clipPath id="clip0_1_26">
<rect width="9.02" height="12.84" fill="white" transform="matrix(1 0 0 -1 0 12.84)"/>
</clipPath>
</defs>
</svg>
