<svg width="16" height="16" viewBox="0 0 16 16" fill="none" xmlns="http://www.w3.org/2000/svg">
<path fill-rule="evenodd" clip-rule="evenodd" d="M8.00004 15C11.676 15 14.6667 12.0093 14.6667 8.33335C14.6667 4.65754 11.676 1.66669 8.00004 1.66669C4.32404 1.66669 1.33337 4.65754 1.33337 8.33335C1.33337 12.0093 4.32404 15 8.00004 15ZM11.7688 6.70651L7.50507 10.9702C7.37111 11.1041 7.18942 11.1795 6.99999 11.1795C6.81057 11.1795 6.62887 11.1041 6.49494 10.9702L4.23125 8.70653C3.95248 8.42775 3.9524 7.9752 4.23133 7.69648C4.51031 7.41773 4.96247 7.41765 5.24138 7.69653L6.99999 9.45499L10.7586 5.69657C11.0375 5.41769 11.4897 5.41774 11.7686 5.69652C12.0475 5.97524 12.0476 6.42771 11.7688 6.70651Z" fill="#E31E25"/>
</svg>
