<svg width="20" height="20" viewBox="0 0 20 20" fill="none" xmlns="http://www.w3.org/2000/svg">
<path d="M19.5238 10C19.5238 4.74015 15.2599 0.476196 10 0.476196C4.74015 0.476196 0.476196 4.74015 0.476196 10C0.476196 15.2599 4.74015 19.5238 10 19.5238C15.2599 19.5238 19.5238 15.2599 19.5238 10Z" fill="url(#paint0_linear_1_80)"/>
<path fill-rule="evenodd" clip-rule="evenodd" d="M4.90744 9.89951C7.68381 8.68985 9.53519 7.89237 10.4615 7.50711C13.1064 6.40703 13.656 6.21592 14.0142 6.2096C14.0929 6.20822 14.2691 6.22775 14.3832 6.32035C14.5525 6.45771 14.5534 6.75584 14.5347 6.95316C14.3913 8.45911 13.7711 12.1136 13.4556 13.8003C13.3221 14.514 13.0592 14.7533 12.8047 14.7768C12.2517 14.8276 11.8317 14.4112 11.2961 14.0601C10.4579 13.5106 9.9843 13.1686 9.17065 12.6324C8.23036 12.0128 8.83992 11.6722 9.37579 11.1156C9.51603 10.97 11.9528 8.7535 12 8.55242C12.0059 8.52727 12.0114 8.43352 11.9557 8.38404C11.9 8.33456 11.8178 8.35145 11.7586 8.36491C11.6745 8.384 10.3354 9.26909 7.74133 11.0201C7.36123 11.2811 7.01697 11.4083 6.70852 11.4016C6.36845 11.3943 5.71436 11.2094 5.22809 11.0513C4.63166 10.8574 4.15762 10.7549 4.19892 10.4257C4.22042 10.2541 4.45659 10.0788 4.90744 9.89951Z" fill="white"/>
<defs>
<linearGradient id="paint0_linear_1_80" x1="10" y1="0.476196" x2="10" y2="19.3751" gradientUnits="userSpaceOnUse">
<stop stop-color="#2AABEE"/>
<stop offset="1" stop-color="#229ED9"/>
</linearGradient>
</defs>
</svg>
