<svg width="20" height="20" viewBox="0 0 20 20" fill="none" xmlns="http://www.w3.org/2000/svg">
<path d="M19.0978 5.05547L19.0922 5.0335C18.6327 3.23619 16.561 1.30764 14.6585 0.906432L14.6371 0.902143C11.5598 0.334214 8.4397 0.334214 5.36316 0.902143L5.34105 0.906432C3.43921 1.30764 1.36746 3.23632 0.907353 5.0335L0.902248 5.05547C0.334179 7.56539 0.334179 10.1109 0.902248 12.6208L0.907353 12.6428C1.34792 14.3633 3.26528 16.2033 5.09679 16.7093V18.7156C5.09679 19.4418 6.01143 19.7984 6.53154 19.2744L8.63257 17.1614C9.08831 17.1861 9.54426 17.1998 10.0001 17.1998C11.5491 17.1998 13.0987 17.0581 14.637 16.7742L14.6584 16.7699C16.561 16.3687 18.6326 14.44 19.0921 12.6429L19.0977 12.6209C19.6658 10.1109 19.6658 7.56552 19.0978 5.05547Z" fill="white"/>
<path d="M19.0978 5.05547L19.0922 5.0335C18.6327 3.23619 16.561 1.30764 14.6585 0.906432L14.6371 0.902143C11.5598 0.334214 8.4397 0.334214 5.36316 0.902143L5.34105 0.906432C3.43921 1.30764 1.36746 3.23632 0.907353 5.0335L0.902248 5.05547C0.334179 7.56539 0.334179 10.1109 0.902248 12.6208L0.907353 12.6428C1.34792 14.3633 3.26528 16.2033 5.09679 16.7093V18.7156C5.09679 19.4418 6.01143 19.7984 6.53154 19.2744L8.63257 17.1614C9.08831 17.1861 9.54426 17.1998 10.0001 17.1998C11.5491 17.1998 13.0987 17.0581 14.637 16.7742L14.6584 16.7699C16.561 16.3687 18.6326 14.44 19.0921 12.6429L19.0977 12.6209C19.6658 10.1109 19.6658 7.56552 19.0978 5.05547Z" fill="#6F3FAA"/>
<path d="M12.6001 13.5087C12.4186 13.456 12.2457 13.4208 12.0849 13.3572C10.4206 12.6978 8.88893 11.8472 7.67571 10.5432C6.98574 9.80173 6.44573 8.96453 5.98927 8.0786C5.77277 7.65848 5.59036 7.22194 5.40439 6.78812C5.23485 6.39259 5.48459 5.98398 5.74753 5.68588C5.99428 5.40614 6.31185 5.19214 6.65574 5.03431C6.92413 4.91119 7.18885 4.9822 7.38491 5.19941C7.80863 5.6691 8.19795 6.16277 8.51305 6.70723C8.70689 7.04211 8.65372 7.45145 8.30239 7.67932C8.21699 7.7347 8.1392 7.79977 8.0597 7.8623C7.98991 7.91713 7.9243 7.97251 7.87646 8.04674C7.78909 8.18252 7.7849 8.34277 7.84112 8.49042C8.27429 9.62715 9.0044 10.5112 10.2027 10.9873C10.3944 11.0634 10.5869 11.1521 10.8078 11.1275C11.1777 11.0863 11.2975 10.6988 11.5568 10.4964C11.8102 10.2985 12.134 10.2959 12.4069 10.4609C12.6799 10.6259 12.9446 10.803 13.2076 10.982C13.4658 11.1576 13.7228 11.3294 13.9609 11.5298C14.19 11.7224 14.2689 11.9751 14.1399 12.2364C13.9039 12.7152 13.5603 13.1132 13.0648 13.3674C12.9249 13.4391 12.7578 13.4623 12.6001 13.5087C12.7578 13.4623 12.4186 13.456 12.6001 13.5087Z" fill="white"/>
<path d="M10.0368 4.48697C12.2137 4.54525 14.0018 5.92481 14.3849 7.97999C14.4503 8.33019 14.4735 8.68815 14.5026 9.04363C14.5148 9.1931 14.4261 9.33512 14.2572 9.33712C14.0827 9.33912 14.0042 9.19964 13.9928 9.05029C13.9704 8.75449 13.9548 8.45731 13.9122 8.16405C13.6868 6.61546 12.3937 5.33431 10.7796 5.05942C10.5367 5.01803 10.2882 5.00719 10.042 4.98253C9.8865 4.96696 9.68283 4.95799 9.64838 4.77331C9.6195 4.61851 9.7563 4.49527 9.91068 4.48733C9.95249 4.48497 9.99468 4.48684 10.0368 4.48697C12.2139 4.54525 9.99468 4.48684 10.0368 4.48697Z" fill="white"/>
<path d="M13.345 8.58235C13.3414 8.60834 13.3396 8.66935 13.3236 8.72678C13.2659 8.93545 12.9345 8.96157 12.8583 8.75102C12.8356 8.68856 12.8322 8.61742 12.8321 8.55017C12.8313 8.10993 12.7311 7.67005 12.4986 7.28695C12.2596 6.89319 11.8944 6.56231 11.4662 6.36194C11.2071 6.24088 10.9271 6.16557 10.6432 6.12079C10.5192 6.10117 10.3938 6.08935 10.2691 6.07275C10.1181 6.05269 10.0374 5.96078 10.0446 5.81863C10.0512 5.68546 10.1532 5.58955 10.3052 5.59785C10.8049 5.62487 11.2874 5.72812 11.7316 5.95266C12.6348 6.40944 13.1508 7.13033 13.3013 8.09302C13.3082 8.13671 13.319 8.17985 13.3226 8.22359C13.331 8.33157 13.3365 8.43972 13.345 8.58235C13.3414 8.60821 13.3365 8.43972 13.345 8.58235Z" fill="white"/>
<path d="M11.9911 8.53193C11.809 8.53508 11.7115 8.43875 11.6927 8.2794C11.6797 8.16827 11.6692 8.05558 11.6415 7.94737C11.5868 7.73427 11.4682 7.53688 11.2805 7.40631C11.1919 7.34469 11.0915 7.2998 10.9864 7.27071C10.8528 7.23382 10.714 7.24399 10.5808 7.21284C10.4361 7.17898 10.356 7.06701 10.3788 6.93741C10.3994 6.81939 10.5196 6.72729 10.6547 6.73668C11.4988 6.79484 12.1019 7.21151 12.188 8.16034C12.1942 8.22729 12.2013 8.298 12.1857 8.36216C12.159 8.47164 12.074 8.5266 11.9911 8.53193C12.074 8.5266 11.809 8.53503 11.9911 8.53193Z" fill="white"/>
<path d="M12.6001 13.5087C12.4186 13.456 12.7578 13.4623 12.6001 13.5087V13.5087Z" fill="white"/>
<path d="M10.0427 4.48723L10.0369 4.48698C10.0369 4.48698 10.0375 4.48704 10.0427 4.48723Z" fill="white"/>
<path d="M10.0424 4.48718L10.0369 4.48694C12.128 4.54293 10.1632 4.4913 10.0424 4.48718Z" fill="white"/>
<path d="M13.345 8.58231C13.3365 8.43968 13.3414 8.60818 13.345 8.58231V8.58231Z" fill="white"/>
<path d="M11.991 8.53194C11.9939 8.53176 11.9968 8.5304 11.9994 8.53009C11.9918 8.53009 11.98 8.53027 11.9679 8.5307C11.9757 8.53088 11.9828 8.53201 11.991 8.53194Z" fill="white"/>
<path d="M11.9679 8.5307C11.9757 8.53088 11.9829 8.53201 11.9911 8.53194C11.8877 8.5337 11.9285 8.53173 11.9679 8.5307Z" fill="white"/>
<path d="M11.9911 8.53203C11.9941 8.53184 11.9971 8.53041 11.9999 8.53009C12.0117 8.53009 12.0135 8.53057 11.9911 8.53203Z" fill="white"/>
</svg>
