<svg width="20" height="20" viewBox="0 0 20 20" fill="none" xmlns="http://www.w3.org/2000/svg">
<path d="M0.476196 19.5238L1.82126 14.6317C0.991805 13.2031 0.558395 11.5773 0.558395 9.91448C0.558395 4.70983 4.81403 0.476196 10.0411 0.476196C12.578 0.476196 14.9581 1.46206 16.7477 3.24405C18.5374 5.02977 19.5238 7.39956 19.5238 9.92191C19.5201 15.1265 15.2682 19.3601 10.0411 19.3601H10.0373C8.44944 19.3601 6.89141 18.9621 5.50524 18.2106L0.476196 19.5238Z" fill="url(#paint0_linear_1_74)"/>
<path d="M0.476196 19.5238L1.82126 14.6317C0.991805 13.2031 0.558395 11.5773 0.558395 9.91448C0.558395 4.70983 4.81403 0.476196 10.0411 0.476196C12.578 0.476196 14.9581 1.46206 16.7477 3.24405C18.5374 5.02977 19.5238 7.39956 19.5238 9.92191C19.5201 15.1265 15.2682 19.3601 10.0411 19.3601H10.0373C8.44944 19.3601 6.89141 18.9621 5.50524 18.2106L0.476196 19.5238Z" fill="white"/>
<path d="M0.476196 19.5238L1.82126 14.6317C0.991805 13.2031 0.558395 11.5773 0.558395 9.91448C0.558395 4.70983 4.81403 0.476196 10.0411 0.476196C12.578 0.476196 14.9581 1.46206 16.7477 3.24405C18.5374 5.02977 19.5238 7.39956 19.5238 9.92191C19.5201 15.1265 15.2682 19.3601 10.0411 19.3601H10.0373C8.44944 19.3601 6.89141 18.9621 5.50524 18.2106L0.476196 19.5238Z" fill="url(#paint1_linear_1_74)"/>
<path fill-rule="evenodd" clip-rule="evenodd" d="M7.66854 5.96729C7.4892 5.57293 7.30239 5.5655 7.13425 5.55806C6.99601 5.55062 6.83908 5.55433 6.67842 5.55433C6.5215 5.55433 6.26369 5.61386 6.04699 5.84823C5.83028 6.08261 5.21753 6.65552 5.21753 7.81624C5.21753 8.97695 6.06567 10.1005 6.18523 10.2567C6.3048 10.413 7.82546 12.872 10.2316 13.817C12.2343 14.6019 12.6415 14.4457 13.075 14.4085C13.5084 14.3713 14.4761 13.8393 14.6741 13.2887C14.8721 12.7381 14.8721 12.2656 14.8123 12.1689C14.7526 12.0722 14.5956 12.0127 14.3565 11.8936C14.1212 11.7746 12.9553 11.2054 12.7387 11.1273C12.522 11.0492 12.3651 11.0082 12.2044 11.2463C12.0474 11.4807 11.5916 12.0127 11.4534 12.1689C11.3152 12.3252 11.1769 12.3474 10.9415 12.2284C10.7061 12.1094 9.94021 11.8601 9.03602 11.0566C8.32986 10.4315 7.85536 9.65773 7.71711 9.42338C7.57887 9.18901 7.70217 9.0588 7.82173 8.94347C7.92635 8.8393 8.05711 8.66817 8.17667 8.53052C8.29623 8.39288 8.3336 8.29615 8.41206 8.13618C8.49053 7.97993 8.45316 7.84229 8.39338 7.72324C8.34107 7.60047 7.88151 6.43603 7.66854 5.96729Z" fill="white"/>
<defs>
<linearGradient id="paint0_linear_1_74" x1="10" y1="19.5238" x2="10" y2="0.476196" gradientUnits="userSpaceOnUse">
<stop stop-color="#F9F9F9"/>
<stop offset="1" stop-color="white"/>
</linearGradient>
<linearGradient id="paint1_linear_1_74" x1="9.99992" y1="19.5254" x2="9.99992" y2="0.474886" gradientUnits="userSpaceOnUse">
<stop stop-color="#20B038"/>
<stop offset="1" stop-color="#60D66A"/>
</linearGradient>
</defs>
</svg>
